<svg xmlns="http://www.w3.org/2000/svg" xmlns:xlink="http://www.w3.org/1999/xlink" version="1.1" id="Capa_1" x="0px" y="0px" viewBox="0 0 512 512" style="enable-background:new 0 0 512 512;" xml:space="preserve">
<g>
	<g>
		<path d="M443.312,100.688l-96-96C344.32,1.68,340.256,0,336,0H80c-8.848,0-16,7.168-16,16v480c0,8.832,7.152,16,16,16h352    c8.848,0,16-7.168,16-16V112C448,107.76,446.32,103.68,443.312,100.688z M352,54.624L393.376,96H352V54.624z M416,480H96V32h224    v80c0,8.832,7.152,16,16,16h80V480z" style="fill: rgb(255, 255, 255);"></path>
	</g>
</g>
<g>
	<g>
		<rect x="128" y="64" width="48" height="32" style="fill: rgb(255, 255, 255);"></rect>
	</g>
</g>
<g>
	<g>
		<rect x="128" y="112" width="96" height="32" style="fill: rgb(255, 255, 255);"></rect>
	</g>
</g>
<g>
	<g>
		<path d="M352,304h-48v-80c0-8.832-7.152-16-16-16h-32v-32h-32v32h-32c-8.848,0-16,7.168-16,16v176h-32v32h48h96h80v-16v-16v-80    C368,311.168,360.848,304,352,304z M272,400h-64V240h64V400z M336,400h-32v-64h32V400z" style="fill: rgb(255, 255, 255);"></path>
	</g>
</g>
<g>
	<g>
		<rect x="224" y="256" width="32" height="32" style="fill: rgb(255, 255, 255);"></rect>
	</g>
</g>
<g>
	<g>
		<rect x="224" y="304" width="32" height="32" style="fill: rgb(255, 255, 255);"></rect>
	</g>
</g>
<g>
	<g>
		<rect x="224" y="352" width="32" height="32" style="fill: rgb(255, 255, 255);"></rect>
	</g>
</g>
<g>
</g>
<g>
</g>
<g>
</g>
<g>
</g>
<g>
</g>
<g>
</g>
<g>
</g>
<g>
</g>
<g>
</g>
<g>
</g>
<g>
</g>
<g>
</g>
<g>
</g>
<g>
</g>
<g>
</g>
</svg>
